<?xml version="1.0" encoding="utf-8"?>
<!-- Generator: Adobe Illustrator 16.0.4, SVG Export Plug-In . SVG Version: 6.00 Build 0)  -->
<!DOCTYPE svg PUBLIC "-//W3C//DTD SVG 1.1//EN" "http://www.w3.org/Graphics/SVG/1.1/DTD/svg11.dtd">
<svg version="1.1" id="Layer_1" xmlns="http://www.w3.org/2000/svg" xmlns:xlink="http://www.w3.org/1999/xlink" x="0px" y="0px"
	 width="26px" height="26px" viewBox="0 0 26 26" enable-background="new 0 0 26 26" xml:space="preserve">
<g>
	<path fill="#72A141" d="M13.001,25.12c-6.684,0-12.122-5.438-12.122-12.121c0-6.682,5.438-12.119,12.122-12.119
		c6.682,0,12.119,5.438,12.119,12.119C25.12,19.683,19.683,25.12,13.001,25.12z M13.001,3.288c-5.356,0-9.713,4.355-9.713,9.711
		c0,5.357,4.357,9.713,9.713,9.713c5.355,0,9.711-4.355,9.711-9.713C22.712,7.644,18.356,3.288,13.001,3.288z"/>
	<path fill="#72A141" d="M11.36,18.062l-4.539-4.539c-0.47-0.469-0.47-1.232,0-1.701c0.47-0.471,1.232-0.471,1.703,0l2.836,2.836
		l5.868-5.867c0.471-0.471,1.232-0.471,1.703,0c0.469,0.469,0.469,1.232,0,1.701L11.36,18.062z"/>
</g>
</svg>
