<?xml version="1.0" encoding="utf-8"?>
<!-- Generator: Adobe Illustrator 16.0.4, SVG Export Plug-In . SVG Version: 6.00 Build 0)  -->
<!DOCTYPE svg PUBLIC "-//W3C//DTD SVG 1.1//EN" "http://www.w3.org/Graphics/SVG/1.1/DTD/svg11.dtd">
<svg version="1.1" id="Layer_1" xmlns="http://www.w3.org/2000/svg" xmlns:xlink="http://www.w3.org/1999/xlink" x="0px" y="0px"
	 width="557.666px" height="39.667px" viewBox="0 0 557.666 39.667" enable-background="new 0 0 557.666 39.667"
	 xml:space="preserve">
<g>
	<g>
		<polygon fill="#003056" points="14.352,34.175 14.352,9.089 5.917,9.089 5.917,5.491 26.996,5.491 26.996,9.089 18.539,9.089 
			18.539,34.175 		"/>
		<path fill="#003056" d="M26.746,5.741v3.098h-8.457v25.086h-3.688V8.839H6.167V5.741H26.746 M27.246,5.241h-0.5H6.167h-0.5v0.5
			v3.098v0.5h0.5h7.935v24.586v0.5h0.5h3.688h0.5v-0.5V9.339h7.957h0.5v-0.5V5.741V5.241L27.246,5.241z"/>
	</g>
	<g>
		<polygon fill="#003056" points="49.05,34.175 49.05,20.755 35.891,20.755 35.891,34.175 31.704,34.175 31.704,5.491 35.891,5.491 
			35.891,17.155 49.05,17.155 49.05,5.491 53.237,5.491 53.237,34.175 		"/>
		<path fill="#003056" d="M52.987,5.741v28.184H49.3v-13.42H35.641v13.42h-3.687V5.741h3.687v11.664H49.3V5.741H52.987
			 M53.487,5.241h-0.5H49.3h-0.5v0.5v11.164H36.141V5.741v-0.5h-0.5h-3.687h-0.5v0.5v28.184v0.5h0.5h3.687h0.5v-0.5v-12.92H48.8
			v12.92v0.5h0.5h3.688h0.5v-0.5V5.741V5.241L53.487,5.241z"/>
	</g>
	<g>
		<polygon fill="#003056" points="57.835,34.175 57.835,5.491 76.974,5.491 76.974,9.089 62.022,9.089 62.022,17.552 73.892,17.552 
			73.892,20.919 62.022,20.919 62.022,30.575 77.384,30.575 77.384,34.175 		"/>
		<path fill="#003056" d="M76.724,5.741v3.098H61.772v8.963h11.869v2.867H61.772v10.156h15.361v3.1H58.085V5.741H76.724
			 M77.224,5.241h-0.5H58.085h-0.5v0.5v28.184v0.5h0.5h19.049h0.5v-0.5v-3.1v-0.5h-0.5H62.272v-9.156h11.369h0.5v-0.5v-2.867v-0.5
			h-0.5H62.272V9.339h14.451h0.5v-0.5V5.741V5.241L77.224,5.241z"/>
	</g>
	<g>
		<path fill="#003056" d="M91.336,34.425V5.241h12.563c3.558,0,6.25,0.886,8,2.634c1.75,1.75,2.638,3.846,2.638,6.227
			c0,2.715-0.964,4.946-2.866,6.63c-1.878,1.672-4.291,2.52-7.171,2.52h-6.854v11.172H91.336z M103.424,17.899
			c1.504,0,2.655-0.347,3.42-1.031c0.761-0.679,1.131-1.562,1.131-2.702c0-1.032-0.347-1.891-1.06-2.626
			c-0.694-0.721-2.028-1.086-3.966-1.086h-5.303v7.445H103.424z"/>
		<path fill="#003056" d="M103.899,5.741c3.434,0,5.986,0.83,7.646,2.488c1.66,1.66,2.491,3.619,2.491,5.873
			c0,2.572-0.896,4.66-2.697,6.256c-1.795,1.598-4.076,2.395-6.84,2.395h-7.354v11.172h-5.311V5.741H103.899 M97.146,18.399h6.277
			c1.638,0,2.893-0.389,3.753-1.158c0.865-0.771,1.298-1.795,1.298-3.074c0-1.156-0.401-2.15-1.2-2.975
			c-0.796-0.826-2.238-1.238-4.325-1.238h-5.803V18.399 M103.899,4.741H91.836h-1v1v28.184v1h1h5.311h1v-1V23.753h6.354
			c3.006,0,5.531-0.891,7.505-2.647c2.012-1.782,3.032-4.138,3.032-7.003c0-2.519-0.937-4.733-2.784-6.58
			C110.405,5.677,107.595,4.741,103.899,4.741L103.899,4.741z M98.146,10.954h4.803c1.771,0,3.018,0.322,3.605,0.932
			c0.619,0.64,0.92,1.385,0.92,2.281c0,0.988-0.315,1.75-0.963,2.328c-0.672,0.601-1.71,0.905-3.088,0.905h-5.277V10.954
			L98.146,10.954z"/>
	</g>
	<g>
		<path fill="#003056" d="M131.812,34.858c-4.055,0-7.263-1.482-9.533-4.406c-2.237-2.879-3.372-6.483-3.372-10.713
			c0-4.204,1.207-7.775,3.589-10.614c2.408-2.864,5.623-4.315,9.555-4.315c3.966,0,7.149,1.455,9.463,4.323
			c2.283,2.836,3.44,6.426,3.44,10.669c0,4.453-1.205,8.108-3.582,10.866C138.975,33.448,135.758,34.858,131.812,34.858z
			 M131.964,9.897c-4.252,0-6.318,3.273-6.318,10.006c0,3.288,0.558,5.797,1.657,7.456c1.068,1.623,2.557,2.411,4.553,2.411
			c1.774,0,3.24-0.688,4.48-2.101c1.234-1.411,1.86-4.072,1.86-7.909c0-3.128-0.527-5.602-1.568-7.354
			C135.623,10.718,134.098,9.897,131.964,9.897z"/>
		<path fill="#003056" d="M132.051,5.31c3.828,0,6.85,1.379,9.073,4.137c2.222,2.76,3.33,6.213,3.33,10.355
			c0,4.35-1.152,7.861-3.461,10.539s-5.369,4.018-9.181,4.018c-3.91,0-6.96-1.408-9.139-4.213c-2.18-2.805-3.267-6.279-3.267-10.406
			c0-4.102,1.157-7.533,3.472-10.293C125.198,6.688,128.254,5.31,132.051,5.31 M131.855,30.271c1.914,0,3.53-0.76,4.856-2.271
			c1.324-1.514,1.984-4.262,1.984-8.238c0-3.236-0.547-5.771-1.639-7.609c-1.094-1.838-2.791-2.754-5.094-2.754
			c-4.542,0-6.818,3.5-6.818,10.506c0,3.402,0.578,5.979,1.74,7.732C128.043,29.394,129.698,30.271,131.855,30.271 M132.051,4.31
			c-4.086,0-7.43,1.512-9.938,4.493c-2.459,2.933-3.706,6.612-3.706,10.937c0,4.344,1.17,8.051,3.478,11.02
			c2.37,3.052,5.711,4.599,9.928,4.599c4.098,0,7.441-1.468,9.938-4.365c2.458-2.85,3.704-6.616,3.704-11.192
			c0-4.36-1.194-8.056-3.551-10.982C139.49,5.827,136.176,4.31,132.051,4.31L132.051,4.31z M131.855,29.271
			c-1.814,0-3.167-0.715-4.135-2.185c-1.046-1.579-1.575-3.995-1.575-7.183c0-9.506,4.379-9.506,5.818-9.506
			c1.942,0,3.327,0.741,4.234,2.265c0.994,1.673,1.498,4.062,1.498,7.098c0,3.712-0.585,6.262-1.737,7.58
			C134.82,28.639,133.478,29.271,131.855,29.271L131.855,29.271z"/>
	</g>
	<g>
		<polygon fill="#003056" points="172.633,34.425 167.161,15.11 162.199,34.425 155.974,34.425 147.642,5.241 154.313,5.241 
			159.614,24.352 164.55,5.241 170.688,5.241 176.168,24.423 181.388,5.241 187.106,5.241 178.955,34.425 		"/>
		<path fill="#003056" d="M186.447,5.741l-7.872,28.184h-5.564l-5.873-20.732l-5.326,20.732h-5.461l-8.046-28.184h5.629
			l5.698,20.543l5.306-20.543h5.374l5.868,20.543l5.59-20.543H186.447 M187.765,4.741h-1.317h-4.678h-0.765l-0.2,0.737
			l-4.648,17.083l-4.883-17.095l-0.207-0.725h-0.755h-5.374h-0.774l-0.194,0.75l-4.371,16.927l-4.7-16.944l-0.203-0.733h-0.761
			h-5.629h-1.325l0.363,1.274l8.046,28.184l0.207,0.726h0.755h5.461h0.775l0.193-0.751l4.404-17.146l4.864,17.169l0.206,0.728h0.756
			h5.564h0.759l0.204-0.731L187.41,6.01L187.765,4.741L187.765,4.741z"/>
	</g>
	<g>
		<polygon fill="#003056" points="192.303,34.425 192.303,5.241 212.244,5.241 212.244,10.433 198.607,10.433 198.607,17.075 
			209.568,17.075 209.568,22.161 198.607,22.161 198.607,29.044 212.438,29.044 212.438,34.425 		"/>
		<path fill="#003056" d="M211.744,5.741v4.191h-13.637v7.643h10.961v4.086h-10.961v7.883h13.831v4.381h-19.136V5.741H211.744
			 M212.744,4.741h-1h-18.941h-1v1v28.184v1h1h19.136h1v-1v-4.381v-1h-1h-12.831v-5.883h9.961h1v-1v-4.086v-1h-1h-9.961v-5.643
			h12.637h1v-1V5.741V4.741L212.744,4.741z"/>
	</g>
	<g>
		<path fill="#003056" d="M234.855,34.425l-4.574-11.582h-6.628v11.582h-6.305V5.241h13.272c3.664,0,6.412,0.818,8.168,2.433
			c1.769,1.625,2.665,3.753,2.665,6.325c0,3.664-1.732,6.267-5.15,7.746l5.247,12.68H234.855z M229.756,17.772
			c1.782,0,3.113-0.35,3.953-1.039c0.823-0.68,1.225-1.594,1.225-2.793c0-1.094-0.394-1.952-1.203-2.623
			c-0.823-0.685-2.015-1.031-3.542-1.031h-6.535v7.486H229.756z"/>
		<path fill="#003056" d="M230.621,5.741c3.553,0,6.164,0.77,7.83,2.301c1.67,1.535,2.503,3.521,2.503,5.957
			c0,3.623-1.768,6.109-5.305,7.473l5.153,12.453h-5.607l-4.574-11.582h-7.468v11.582h-5.305V5.741H230.621 M223.153,18.272h6.603
			c1.914,0,3.337-0.387,4.271-1.152c0.937-0.773,1.407-1.834,1.407-3.18c0-1.24-0.46-2.242-1.384-3.008
			c-0.919-0.764-2.206-1.146-3.861-1.146h-7.035V18.272 M230.621,4.741h-12.772h-1v1v28.184v1h1h5.305h1v-1V23.343h5.788
			l4.324,10.949l0.25,0.633h0.68h5.607h1.496l-0.572-1.382L236.95,22c3.321-1.593,5.004-4.28,5.004-8
			c0-2.717-0.951-4.969-2.826-6.693C237.276,5.604,234.414,4.741,230.621,4.741L230.621,4.741z M224.153,10.786h6.035
			c1.407,0,2.491,0.308,3.222,0.916c0.699,0.579,1.023,1.29,1.023,2.239c0,1.041-0.342,1.829-1.044,2.409
			c-0.746,0.612-1.97,0.923-3.634,0.923h-5.603V10.786L224.153,10.786z"/>
	</g>
	<g>
		<path fill="#003056" d="M267.956,34.753c-3.847,0-6.891-1.456-9.046-4.327c-2.136-2.845-3.219-6.382-3.219-10.511
			c0-4.307,1.136-7.918,3.375-10.734c2.256-2.832,5.283-4.268,8.998-4.268c3.699,0,6.712,1.411,8.954,4.195
			c2.229,2.771,3.359,6.303,3.359,10.499c0,4.025-1.095,7.587-3.253,10.587C274.947,33.219,271.862,34.753,267.956,34.753z
			 M268.021,8.304c-2.416,0-4.363,1.068-5.789,3.175c-1.447,2.136-2.181,4.981-2.181,8.458c0,3.395,0.74,6.187,2.201,8.299
			c1.462,2.117,3.355,3.146,5.79,3.146c2.474,0,4.437-1.095,5.835-3.253c1.419-2.197,2.139-5.072,2.139-8.544
			c0-3.564-0.742-6.372-2.206-8.347C272.363,9.291,270.416,8.304,268.021,8.304z"/>
		<path fill="#003056" d="M268.064,5.163c3.639,0,6.559,1.369,8.76,4.102c2.199,2.734,3.304,6.182,3.304,10.342
			c0,3.994-1.07,7.473-3.206,10.441c-2.137,2.969-5.121,4.455-8.966,4.455c-3.779,0-6.731-1.41-8.846-4.227
			s-3.169-6.268-3.169-10.361c0-4.27,1.108-7.797,3.32-10.578C261.479,6.554,264.414,5.163,268.064,5.163 M268.043,31.632
			c2.574,0,4.591-1.123,6.045-3.367c1.449-2.244,2.179-5.139,2.179-8.68c0-3.639-0.751-6.467-2.255-8.496
			c-1.503-2.021-3.498-3.035-5.99-3.035c-2.515,0-4.515,1.096-5.996,3.285c-1.483,2.189-2.224,5.055-2.224,8.598
			c0,3.457,0.746,6.273,2.245,8.441C263.544,30.546,265.539,31.632,268.043,31.632 M268.064,4.663c-3.795,0-6.889,1.468-9.193,4.362
			c-2.276,2.861-3.43,6.525-3.43,10.89c0,4.185,1.1,7.772,3.27,10.662c2.204,2.937,5.315,4.426,9.245,4.426
			c3.991,0,7.145-1.569,9.372-4.663c2.189-3.044,3.3-6.655,3.3-10.733c0-4.253-1.148-7.838-3.414-10.655
			C274.922,6.106,271.844,4.663,268.064,4.663L268.064,4.663z M268.043,31.132c-2.346,0-4.173-0.994-5.585-3.038
			c-1.431-2.07-2.156-4.814-2.156-8.157c0-3.425,0.72-6.224,2.138-8.317c1.396-2.062,3.222-3.065,5.582-3.065
			c2.344,0,4.172,0.927,5.589,2.833c1.431,1.93,2.156,4.688,2.156,8.198c0,3.423-0.706,6.252-2.099,8.408
			C272.3,30.105,270.46,31.132,268.043,31.132L268.043,31.132z"/>
	</g>
	<g>
		<polygon fill="#003056" points="285.204,34.175 285.204,5.491 303.737,5.491 303.737,9.089 289.392,9.089 289.392,17.485 
			301.276,17.485 301.276,20.835 289.392,20.835 289.392,34.175 		"/>
		<path fill="#003056" d="M303.487,5.741v3.098h-14.346v8.896h11.885v2.85h-11.885v13.34h-3.688V5.741H303.487 M303.987,5.241h-0.5
			h-18.033h-0.5v0.5v28.184v0.5h0.5h3.688h0.5v-0.5v-12.84h11.385h0.5v-0.5v-2.85v-0.5h-0.5h-11.385V9.339h13.846h0.5v-0.5V5.741
			V5.241L303.987,5.241z"/>
	</g>
	<g>
		<path fill="#003056" d="M329.478,34.753c-3.789,0-6.808-1.487-8.973-4.42c-2.141-2.909-3.227-6.532-3.227-10.77
			c0-4.379,1.137-7.95,3.379-10.614c2.253-2.678,5.315-4.036,9.102-4.036c5.625,0,9.285,3.112,10.877,9.25l0.066,0.259l-3.958,0.753
			l-0.062-0.221c-1.243-4.405-3.515-6.546-6.945-6.546c-2.537,0-4.449,0.987-5.845,3.019c-1.396,2.032-2.103,4.94-2.103,8.646
			c0,3.383,0.726,6.13,2.155,8.165c1.41,2.005,3.301,3.022,5.62,3.022c3.661,0,6.023-2.249,7.223-6.875l0.061-0.232l3.853,0.83
			l-0.065,0.252C338.999,31.55,335.245,34.753,329.478,34.753z"/>
		<path fill="#003056" d="M329.759,5.163c5.525,0,9.068,3.023,10.635,9.062l-3.471,0.66c-1.266-4.486-3.662-6.729-7.186-6.729
			c-2.602,0-4.617,1.041-6.051,3.127c-1.434,2.088-2.146,5.014-2.146,8.787c0,3.455,0.736,6.225,2.201,8.309
			s3.406,3.129,5.824,3.129c3.756,0,6.244-2.354,7.465-7.062l3.363,0.725c-1.611,6.221-5.248,9.332-10.916,9.332
			c-3.725,0-6.646-1.439-8.771-4.318c-2.119-2.879-3.178-6.42-3.178-10.621c0-4.338,1.107-7.824,3.32-10.453
			C323.063,6.478,326.032,5.163,329.759,5.163 M329.759,4.663c-3.863,0-6.99,1.388-9.293,4.125
			c-2.281,2.71-3.438,6.335-3.438,10.775c0,4.292,1.102,7.965,3.275,10.917c2.215,3.001,5.301,4.522,9.174,4.522
			c5.896,0,9.731-3.266,11.4-9.707l0.13-0.504l-0.509-0.11l-3.363-0.725l-0.469-0.101l-0.121,0.464
			c-1.166,4.5-3.45,6.688-6.98,6.688c-2.265,0-4.036-0.954-5.415-2.917c-1.4-1.992-2.11-4.691-2.11-8.021
			c0-3.653,0.692-6.515,2.059-8.504c1.346-1.958,3.19-2.91,5.639-2.91c3.304,0,5.496,2.082,6.704,6.364l0.125,0.441l0.45-0.085
			l3.471-0.66l0.524-0.1l-0.134-0.517C339.253,7.838,335.513,4.663,329.759,4.663L329.759,4.663z"/>
	</g>
	<g>
		<path fill="#003056" d="M357.341,34.753c-3.848,0-6.892-1.456-9.046-4.327c-2.137-2.845-3.22-6.381-3.22-10.511
			c0-4.306,1.136-7.917,3.375-10.734c2.258-2.832,5.285-4.268,9-4.268c3.7,0,6.712,1.411,8.952,4.195
			c2.229,2.77,3.36,6.302,3.36,10.499c0,4.027-1.094,7.589-3.252,10.587C364.333,33.219,361.248,34.753,357.341,34.753z
			 M357.407,8.304c-2.417,0-4.364,1.068-5.789,3.175c-1.447,2.138-2.182,4.983-2.182,8.458c0,3.395,0.74,6.187,2.2,8.299
			c1.463,2.117,3.356,3.146,5.79,3.146c2.474,0,4.438-1.095,5.837-3.253c1.42-2.198,2.14-5.073,2.14-8.543
			c0-3.561-0.742-6.369-2.207-8.347C361.748,9.291,359.801,8.304,357.407,8.304z"/>
		<path fill="#003056" d="M357.45,5.163c3.637,0,6.559,1.369,8.758,4.102c2.201,2.734,3.305,6.182,3.305,10.342
			c0,3.994-1.068,7.473-3.205,10.441s-5.121,4.455-8.967,4.455c-3.779,0-6.732-1.41-8.846-4.227
			c-2.115-2.816-3.17-6.268-3.17-10.361c0-4.27,1.109-7.797,3.32-10.578C350.864,6.554,353.8,5.163,357.45,5.163 M357.427,31.632
			c2.574,0,4.592-1.123,6.047-3.367c1.449-2.244,2.18-5.139,2.18-8.68c0-3.639-0.754-6.467-2.256-8.496
			c-1.504-2.021-3.498-3.035-5.99-3.035c-2.516,0-4.516,1.096-5.996,3.285c-1.482,2.189-2.225,5.055-2.225,8.598
			c0,3.457,0.746,6.273,2.244,8.441S354.923,31.632,357.427,31.632 M357.45,4.663c-3.794,0-6.888,1.468-9.195,4.362
			c-2.276,2.863-3.43,6.526-3.43,10.89c0,4.186,1.101,7.772,3.271,10.662c2.203,2.937,5.314,4.426,9.245,4.426
			c3.992,0,7.146-1.569,9.372-4.663c2.189-3.042,3.3-6.653,3.3-10.733c0-4.255-1.149-7.84-3.415-10.655
			C364.308,6.106,361.229,4.663,357.45,4.663L357.45,4.663z M357.427,31.132c-2.346,0-4.172-0.994-5.585-3.038
			c-1.43-2.07-2.155-4.814-2.155-8.157c0-3.423,0.72-6.221,2.139-8.317c1.395-2.063,3.221-3.065,5.582-3.065
			c2.343,0,4.171,0.927,5.589,2.833c1.432,1.934,2.157,4.692,2.157,8.198c0,3.422-0.706,6.251-2.1,8.408
			C361.685,30.105,359.844,31.132,357.427,31.132L357.427,31.132z"/>
	</g>
	<g>
		<polygon fill="#003056" points="399.22,34.175 399.22,10.647 390.08,34.175 387.236,34.175 377.993,10.634 377.993,34.175 
			374.362,34.175 374.362,5.491 380.243,5.491 388.965,27.59 397.485,5.491 403.298,5.491 403.298,34.175 		"/>
		<path fill="#003056" d="M403.048,5.741v28.184h-3.578V9.313l-9.561,24.611h-2.502l-9.664-24.611v24.611h-3.131V5.741h5.461
			l8.895,22.537l8.689-22.537H403.048 M403.548,5.241h-0.5h-5.391h-0.343l-0.124,0.32l-8.228,21.341l-8.425-21.345l-0.125-0.316
			h-0.34h-5.461h-0.5v0.5v28.184v0.5h0.5h3.131h0.5v-0.5v-21.97l8.698,22.153l0.125,0.317h0.341h2.502h0.342l0.124-0.319
			l8.595-22.125v21.943v0.5h0.5h3.578h0.5v-0.5V5.741V5.241L403.548,5.241z"/>
	</g>
	<g>
		<polygon fill="#003056" points="432.804,34.175 432.804,10.648 423.666,34.175 420.82,34.175 411.579,10.634 411.579,34.175 
			407.946,34.175 407.946,5.491 413.827,5.491 422.551,27.59 431.069,5.491 436.882,5.491 436.882,34.175 		"/>
		<path fill="#003056" d="M436.632,5.741v28.184h-3.578V9.313l-9.559,24.611h-2.504l-9.662-24.611v24.611h-3.133V5.741h5.461
			l8.896,22.537l8.688-22.537H436.632 M437.132,5.241h-0.5h-5.391h-0.343l-0.124,0.32l-8.227,21.341l-8.426-21.345l-0.125-0.316
			h-0.34h-5.461h-0.5v0.5v28.184v0.5h0.5h3.133h0.5v-0.5v-21.97l8.696,22.152l0.125,0.317h0.341h2.504h0.342l0.124-0.319
			l8.593-22.124v21.943v0.5h0.5h3.578h0.5v-0.5V5.741V5.241L437.132,5.241z"/>
	</g>
	<g>
		<path fill="#003056" d="M452.022,34.753c-3.463,0-6.069-0.86-7.748-2.557c-1.68-1.686-2.531-4.393-2.531-8.047V5.491h4.188v18.662
			c0,2.136,0.257,3.65,0.764,4.501c0.503,0.845,1.275,1.477,2.294,1.875c1.038,0.416,2.146,0.625,3.294,0.625
			c2.189,0,3.874-0.553,5.006-1.645c1.122-1.092,1.691-2.895,1.691-5.357V5.491h3.562v18.658c0,3.751-0.983,6.488-2.922,8.134
			C457.686,33.922,455.13,34.753,452.022,34.753z"/>
		<path fill="#003056" d="M462.292,5.741v18.408c0,3.693-0.947,6.342-2.834,7.943c-1.895,1.605-4.371,2.41-7.436,2.41
			c-3.406,0-5.932-0.826-7.57-2.482c-1.645-1.65-2.459-4.277-2.459-7.871V5.741h3.688v18.412c0,2.189,0.264,3.73,0.799,4.629
			c0.531,0.893,1.336,1.557,2.418,1.98c1.074,0.43,2.205,0.643,3.385,0.643c2.27,0,3.996-0.574,5.18-1.715
			c1.178-1.146,1.768-2.99,1.768-5.537V5.741H462.292 M462.792,5.241h-0.5h-3.062h-0.5v0.5v18.412c0,2.393-0.544,4.135-1.616,5.179
			c-1.083,1.043-2.709,1.573-4.831,1.573c-1.116,0-2.192-0.204-3.199-0.607c-0.97-0.38-1.7-0.976-2.174-1.772
			c-0.483-0.812-0.729-2.283-0.729-4.373V5.741v-0.5h-0.5h-3.688h-0.5v0.5v18.408c0,3.723,0.876,6.489,2.604,8.224
			c1.727,1.744,4.393,2.629,7.925,2.629c3.168,0,5.778-0.851,7.759-2.529c1.998-1.696,3.011-4.497,3.011-8.325V5.741V5.241
			L462.792,5.241z"/>
	</g>
	<g>
		<path fill="#003056" d="M485.547,34.175l-14.82-23.91l0.021,0.944c0.047,0.694,0.066,1.294,0.066,1.779v21.188h-3.479V5.491h5.006
			l13.829,22.303l-0.024-1.04c-0.027-0.774-0.041-1.457-0.041-2.049V5.491h3.412v28.684H485.547z"/>
		<path fill="#003056" d="M489.267,5.741v28.184h-3.58l-15.23-24.57l0.041,1.859c0.047,0.699,0.066,1.293,0.066,1.773v20.938h-2.979
			V5.741h4.617l14.238,22.965l-0.045-1.957c-0.027-0.773-0.041-1.453-0.041-2.043V5.741H489.267 M489.767,5.241h-0.5h-2.912h-0.5
			v0.5v18.965c0,0.592,0.014,1.285,0.041,2.061l0.003,0.117L472.627,5.478l-0.146-0.236h-0.278h-4.617h-0.5v0.5v28.184v0.5h0.5
			h2.979h0.5v-0.5V12.987c0-0.53-0.022-1.138-0.067-1.807v-0.006l14.266,23.014l0.146,0.236h0.278h3.58h0.5v-0.5V5.741V5.241
			L489.767,5.241z"/>
	</g>
	<g>
		<rect x="494.165" y="5.491" fill="#003056" width="4.188" height="28.684"/>
		<path fill="#003056" d="M498.103,5.741v28.184h-3.688V5.741H498.103 M498.603,5.241h-0.5h-3.688h-0.5v0.5v28.184v0.5h0.5h3.688
			h0.5v-0.5V5.741V5.241L498.603,5.241z"/>
	</g>
	<g>
		<polygon fill="#003056" points="511.073,34.175 511.073,9.089 502.64,9.089 502.64,5.491 523.726,5.491 523.726,9.089 
			515.261,9.089 515.261,34.175 		"/>
		<path fill="#003056" d="M523.476,5.741v3.098h-8.465v25.086h-3.688V8.839h-8.434V5.741H523.476 M523.976,5.241h-0.5H502.89h-0.5
			v0.5v3.098v0.5h0.5h7.934v24.586v0.5h0.5h3.688h0.5v-0.5V9.339h7.965h0.5v-0.5V5.741V5.241L523.976,5.241z"/>
	</g>
	<g>
		<polygon fill="#003056" points="537.7,34.175 537.7,22.143 527.647,5.491 532.595,5.491 540.271,18.208 547.995,5.491 
			551.942,5.491 541.892,22.143 541.892,34.175 		"/>
		<path fill="#003056" d="M551.499,5.741l-9.857,16.332v11.852h-3.691V22.073l-9.859-16.332h4.363l7.816,12.949l7.865-12.949
			H551.499 M552.385,5.241h-0.886h-3.363h-0.281l-0.146,0.24l-7.437,12.244l-7.39-12.242l-0.146-0.242h-0.282h-4.363h-0.886
			L527.663,6l9.787,16.213v11.712v0.5h0.5h3.691h0.5v-0.5V22.212L551.927,6L552.385,5.241L552.385,5.241z"/>
	</g>
</g>
</svg>
